<svg width="200" height="200" xmlns="http://www.w3.org/2000/svg">
  <defs>
    <style>
      .shape {
        fill: #ff69b4;
      }
    </style>
  </defs>
  <!-- ハートマーク -->
  <path class="shape" d="M50,18 C50,13 45,10 41,10 C38,10 35,12 34,14 C33,12 30,10 27,10 C23,10 18,13 18,18 C18,23 34,32 34,32 C34,32 50,23 50,18 Z"/>
  <path class="shape" d="M130,140 C130,135 125,132 121,132 C118,132 115,134 114,136 C113,134 110,132 107,132 C103,132 98,135 98,140 C98,145 114,154 114,154 C114,154 130,145 130,140 Z"/>
  <path class="shape" d="M180,185 C180,180 175,177 171,177 C168,177 165,179 164,181 C163,179 160,177 157,177 C153,177 148,180 148,185 C148,190 164,199 164,199 C164,199 180,190 180,185 Z"/>
  <path class="shape" d="M75,110 C75,105 70,102 66,102 C63,102 60,104 59,106 C58,104 55,102 52,102 C48,102 43,105 43,110 C43,115 59,124 59,124 C59,124 75,115 75,110 Z"/>
</svg>
